<?xml version="1.0" standalone="no"?>
<!DOCTYPE svg PUBLIC "-//W3C//DTD SVG 20010904//EN"
 "http://www.w3.org/TR/2001/REC-SVG-20010904/DTD/svg10.dtd">
<svg version="1.0" xmlns="http://www.w3.org/2000/svg"
 width="453.000000pt" height="273.000000pt" viewBox="0 0 453.000000 273.000000"
 preserveAspectRatio="xMidYMid meet">

<g transform="translate(0.000000,273.000000) scale(0.100000,-0.100000)"
fill="#000000" stroke="none">
<path d="M0 1365 l0 -1365 2265 0 2265 0 0 1365 0 1365 -2265 0 -2265 0 0
-1365z m2124 1075 c38 -41 45 -53 37 -68 -13 -24 -88 -92 -101 -92 -16 0 -100
86 -100 102 0 19 87 108 105 108 7 0 33 -22 59 -50z m-446 -32 c80 -19 124
-57 143 -122 16 -59 -3 -116 -57 -166 -24 -22 -48 -40 -54 -40 -23 0 -8 -18
20 -23 50 -10 106 -70 120 -128 24 -101 -22 -193 -119 -237 -50 -23 -72 -26
-197 -30 -96 -3 -153 0 -179 8 -62 21 -65 37 -65 377 0 319 3 336 50 360 32
16 274 17 338 1z m800 -80 c6 -8 12 -38 14 -68 l3 -55 60 -5 60 -5 3 -43 c4
-59 -9 -72 -74 -72 l-54 0 0 -107 c0 -165 22 -213 89 -198 26 5 30 2 45 -35 9
-22 16 -47 16 -54 0 -37 -156 -49 -226 -17 -66 30 -78 66 -82 254 l-4 157 -33
0 c-43 0 -57 19 -53 72 3 43 3 43 46 46 l42 3 0 53 c0 50 3 56 40 90 l41 37
28 -20 c15 -11 33 -26 39 -33z m607 -130 c86 -31 136 -103 138 -199 3 -99 -35
-118 -235 -119 -76 0 -118 -4 -118 -10 0 -25 33 -71 61 -86 44 -22 128 -20
178 5 47 24 60 25 97 9 23 -11 25 -16 20 -46 -3 -19 -13 -43 -22 -53 -42 -46
-214 -64 -321 -33 -63 18 -115 60 -146 118 -31 59 -32 220 -1 286 23 50 64 94
106 116 58 30 176 36 243 12z m-945 -268 l0 -271 -77 3 -78 3 -3 268 -2 267
80 0 80 0 0 -270z m366 -634 l34 -34 -2 -379 -3 -378 -55 -3 c-48 -2 -59 0
-79 22 l-24 25 -32 -25 c-58 -44 -191 -49 -252 -9 -35 23 -79 88 -93 139 -8
28 -11 80 -8 134 3 74 9 96 31 135 52 88 136 127 274 127 l83 0 0 107 c0 107
0 107 32 140 18 18 38 33 46 33 8 0 29 -15 48 -34z m671 2 l33 -32 0 -383 0
-383 -59 0 c-53 0 -61 3 -79 27 l-20 28 -24 -21 c-13 -12 -33 -27 -46 -33 -26
-14 -135 -17 -172 -6 -82 25 -138 116 -147 238 -10 136 37 234 137 284 45 23
70 28 152 31 l98 4 0 105 0 106 36 33 c19 19 41 34 47 34 6 0 26 -14 44 -32z
m-2102 -62 c142 -61 154 -215 23 -302 l-47 -32 35 -6 c19 -4 50 -21 70 -38
114 -100 70 -281 -83 -338 -45 -17 -78 -20 -198 -20 -79 0 -155 4 -170 10 -50
19 -55 52 -55 370 0 329 4 351 62 369 54 17 316 7 363 -13z m390 -197 l35 -31
0 -142 c0 -155 10 -212 43 -238 45 -36 118 -16 146 39 7 13 11 82 11 174 l0
153 37 38 c20 21 42 38 47 38 6 0 25 -14 43 -32 l33 -32 0 -253 0 -253 -57 0
c-50 0 -60 3 -79 28 l-22 27 -24 -21 c-39 -36 -66 -45 -137 -45 -94 0 -141 24
-172 88 -22 44 -24 63 -27 232 l-4 183 38 39 c21 21 41 39 46 39 4 0 23 -14
43 -31z m1988 -20 c25 -21 37 -39 37 -57 0 -75 73 -267 115 -302 14 -12 18
-12 25 0 14 23 49 160 63 245 10 68 17 83 46 112 19 18 39 33 46 33 6 0 28
-16 49 -35 38 -35 38 -35 31 -92 -24 -193 -148 -466 -264 -582 -51 -51 -128
-90 -190 -98 -57 -6 -85 6 -107 48 -15 30 -15 32 12 60 18 19 38 29 56 29 46
0 92 24 130 70 l36 42 -50 61 c-86 107 -168 302 -168 400 0 28 7 41 38 66 20
17 42 30 47 31 6 0 27 -14 48 -31z"/>
<path d="M1475 2287 c-19 -15 -20 -27 -20 -242 0 -226 0 -227 24 -246 41 -34
145 -18 181 28 51 65 1 163 -84 163 -26 0 -86 44 -86 64 0 18 50 52 88 61 44
9 72 48 72 100 0 57 -24 78 -98 83 -40 2 -63 -1 -77 -11z"/>
<path d="M2924 2091 c-27 -16 -54 -63 -54 -92 0 -5 45 -9 99 -9 110 0 119 5
99 61 -7 21 -22 36 -44 45 -44 19 -63 18 -100 -5z"/>
<path d="M2225 912 c-44 -27 -54 -44 -67 -103 -13 -66 1 -129 38 -166 23 -23
32 -25 81 -21 46 4 61 10 80 32 21 25 23 36 23 140 0 111 0 113 -25 124 -38
17 -96 14 -130 -6z"/>
<path d="M2900 912 c-46 -23 -70 -72 -70 -145 0 -66 19 -121 48 -136 39 -21
108 -13 141 15 l31 26 0 119 c0 119 0 120 -26 129 -38 15 -85 12 -124 -8z"/>
<path d="M850 1128 l-25 -14 -3 -231 c-3 -269 -5 -263 84 -263 61 0 90 11 116
44 24 30 23 97 -2 124 -17 18 -74 41 -105 42 -13 1 -65 47 -65 58 0 17 48 53
84 63 54 15 76 44 76 101 0 39 -4 50 -23 63 -34 22 -107 29 -137 13z"/>
</g>
</svg>
